<?xml version="1.0" standalone="no"?>
<!DOCTYPE svg PUBLIC "-//W3C//DTD SVG 1.1//EN" "http://www.w3.org/Graphics/SVG/1.1/DTD/svg11.dtd" >
<svg xmlns="http://www.w3.org/2000/svg">
<metadata></metadata>
<defs>
<font id="swiss_721bold_condensed" horiz-adv-x="1024" >
<font-face units-per-em="2048" ascent="1638" descent="-410" />
<missing-glyph horiz-adv-x="512" />
<glyph unicode="&#xfb01;" horiz-adv-x="1021" d="M37 958v199h104v115q0 145 54.5 209.5t193.5 64.5q51 0 129 -6v-201q-8 0 -14 1t-12 1q-82 0 -82 -77v-107h108v-199h-108v-958h-269v958h-104zM647 0v1157h264v-1157h-264zM647 1300v240h264v-240h-264z" />
<glyph unicode="&#xfb02;" horiz-adv-x="1021" d="M37 958v199h104v115q0 145 54.5 209.5t193.5 64.5q51 0 129 -6v-201q-8 0 -14 1t-12 1q-82 0 -82 -77v-107h108v-199h-108v-958h-269v958h-104zM647 0v1540h264v-1540h-264z" />
<glyph horiz-adv-x="2048" />
<glyph horiz-adv-x="2048" />
<glyph unicode="&#xd;" horiz-adv-x="512" />
<glyph unicode=" "  horiz-adv-x="512" />
<glyph unicode="&#x09;" horiz-adv-x="512" />
<glyph unicode="&#xa0;" horiz-adv-x="512" />
<glyph unicode="!" horiz-adv-x="598" d="M160 1042v498h276v-498l-53 -639h-172zM166 0v279h262v-279h-262z" />
<glyph unicode="&#x22;" horiz-adv-x="677" d="M80 879v559h192v-559h-192zM406 879v559h192v-559h-192z" />
<glyph unicode="#" horiz-adv-x="1574" d="M45 406l76 200h282l86 242h-299l74 201h297l148 415h221l-146 -415h242l148 415h221l-148 -415h283l-74 -201h-280l-84 -242h290l-71 -200h-291l-148 -416h-221l148 416h-244l-149 -416h-220l146 416h-287zM621 606h251l86 242h-249z" />
<glyph unicode="$" d="M74 444v39h243q0 -12 -1 -24.5t-1 -22.5q0 -207 140 -233v454q-94 51 -163 103.5t-114 110t-66.5 122t-21.5 142.5q0 174 94.5 276t261.5 111v137h113v-139q174 -2 263 -95.5t89 -273.5v-29h-237v21q0 88 -33 134t-90 50v-409q102 -53 177 -103.5t123 -108t71.5 -125 t23.5 -155.5q0 -199 -99 -308.5t-288 -119.5v-199h-113v199q-373 23 -372 446zM334 1165q0 -111 121 -192v356q-59 -4 -90 -47t-31 -117zM551 203q137 25 137 182q0 78 -30.5 127t-106.5 96v-405z" />
<glyph unicode="%" horiz-adv-x="1579" d="M90 1176q0 199 71.5 286.5t241.5 87.5q174 0 248 -86t74 -286q0 -205 -75 -299.5t-247 -94.5t-242.5 93.5t-70.5 298.5zM291 1169q0 -127 21.5 -178t93.5 -51q76 0 96 53.5t20 175.5q0 123 -24.5 174.5t-96.5 51.5q-66 0 -88 -53.5t-22 -172.5zM360 -29l705 1579h149 l-706 -1579h-148zM852 360q0 199 71.5 288t241.5 89q174 0 249 -87t75 -288q0 -205 -76 -298t-248 -93t-242.5 92t-70.5 297zM1055 356q0 -127 21.5 -179t92.5 -52q76 0 96.5 53t20.5 176t-24.5 175.5t-96.5 52.5q-66 0 -88 -53.5t-22 -172.5z" />
<glyph unicode="&#x26;" horiz-adv-x="1347" d="M121 434q0 74 17.5 135.5t53 117.5t91 109.5t131.5 110.5q-57 90 -89 167t-32 155q0 139 88 225t242 86q164 0 249.5 -75.5t85.5 -217.5q0 -117 -54 -215t-165 -170l185 -317q20 53 28.5 113.5t8.5 129.5v25h235q-4 -317 -131 -504l182 -309h-305l-51 98 q-66 -66 -146.5 -95.5t-185.5 -29.5q-207 0 -322.5 125t-115.5 336zM389 451q0 -53 16.5 -98.5t44 -79t64.5 -53t80 -19.5q53 0 97 21.5t91 62.5l-252 417q-141 -98 -141 -251zM532 1247q0 -27 23 -67l68 -125q111 88 110 186q0 113 -98 113q-102 0 -103 -107z" />
<glyph unicode="'" horiz-adv-x="352" d="M80 879v559h192v-559h-192z" />
<glyph unicode="(" horiz-adv-x="673" d="M141 637q0 256 76 496.5t223 443.5h166q-96 -164 -146 -413t-50 -578q0 -303 47 -543t157 -432h-168q-162 231 -233.5 481t-71.5 545z" />
<glyph unicode=")" horiz-adv-x="673" d="M66 -389q111 193 157.5 432.5t46.5 542.5q0 330 -50 578.5t-146 412.5h166q147 -203 223 -443.5t76 -496.5q0 -295 -72 -545t-234 -481h-167z" />
<glyph unicode="*" d="M127 1192l57 178l236 -78v248h184v-248l236 78l57 -178l-233 -76l143 -201l-150 -108l-145 201l-145 -201l-150 108l143 201z" />
<glyph unicode="+" horiz-adv-x="1705" d="M254 512v199h498v510h202v-510h498v-199h-498v-512h-202v512h-498z" />
<glyph unicode="," horiz-adv-x="512" d="M127 0v276h258v-278q0 -129 -70.5 -209t-187.5 -90v104q63 6 101 54.5t38 126.5v16h-139z" />
<glyph unicode="-" horiz-adv-x="671" d="M92 459v239h488v-239h-488z" />
<glyph unicode="." horiz-adv-x="512" d="M127 0v276h258v-276h-258z" />
<glyph unicode="/" horiz-adv-x="628" d="M-61 -190l577 1767h152l-578 -1767h-151z" />
<glyph unicode="0" d="M88 772q0 229 14.5 380t61.5 228q57 92 140 131t208 39t208 -38.5t140 -131.5q47 -78 61.5 -228.5t14.5 -379.5t-12.5 -381.5t-59.5 -234.5q-57 -98 -140 -141.5t-212 -43.5q-127 0 -211 43t-141 142q-47 82 -59.5 234.5t-12.5 381.5zM375 471q0 -76 4 -130t17.5 -90 t41 -52.5t74.5 -16.5t74.5 18.5t41 55.5t17.5 94.5t4 134.5v148v416q0 74 -4 129t-17.5 90t-41 52t-74.5 17t-74.5 -18.5t-42 -55t-17.5 -93t-3 -134.5v-565z" />
<glyph unicode="1" d="M92 1085v183q383 10 420 282h190v-1550h-270v1085h-340z" />
<glyph unicode="2" d="M86 49q0 180 73.5 342t221.5 316q61 63 118.5 115t94.5 106q33 47 46 100t13 117q0 193 -143 192q-78 0 -113 -59t-35 -184v-28.5t3 -31.5h-269q0 14 -1 26.5t-1 24.5q0 242 101.5 353.5t322.5 111.5q209 0 316.5 -101t107.5 -292q0 -88 -19.5 -162.5t-60.5 -144.5 q-35 -59 -97.5 -119.5t-133.5 -138.5q-96 -106 -163 -188t-89 -158h545v-246h-836q0 12 -1 24.5t-1 24.5z" />
<glyph unicode="3" d="M82 457q0 16 1 30.5t1 30.5h268v-18q0 -164 32 -237t124 -73q90 0 122 66t32 211q0 74 -8.5 123t-31 78.5t-62.5 42t-105 12.5h-34t-46 -2v201h20q70 0 116 11t73.5 35.5t39 66.5t11.5 104q0 109 -27.5 156.5t-107.5 47.5q-74 0 -104.5 -51t-30.5 -162v-36h-267 q-2 14 -2 28.5v28.5q0 399 416 399q193 0 296 -102t103 -295q0 -131 -46 -212t-132 -110q213 -53 213 -364q0 -496 -446 -496q-217 0 -317.5 119t-100.5 367z" />
<glyph unicode="4" d="M70 305v246l456 971h293v-987h129v-230h-129v-305h-262v305h-487zM276 528h287v627z" />
<glyph unicode="5" d="M80 455v39h266v-41q0 -272 156 -273q84 0 117.5 84t33.5 260q0 160 -37.5 238t-130.5 78q-59 0 -98 -34t-43 -91h-250l41 807h729v-246h-516l-16 -309q45 47 95 66.5t116 19.5q391 0 391 -510q0 -295 -103.5 -434.5t-336.5 -139.5q-213 0 -313.5 119t-100.5 367z" />
<glyph unicode="6" d="M90 754q0 231 14.5 382.5t59.5 229.5q57 98 145 141t223 43q180 0 276.5 -86t96.5 -239v-23h-266v15q0 127 -121 126q-88 0 -118.5 -77.5t-30.5 -241.5q0 -23 1 -44t1 -44q66 104 217 104q180 0 264 -119.5t84 -367.5q0 -152 -21.5 -262.5t-71.5 -181t-132 -104.5 t-201 -34q-123 0 -204 40t-138 132q-47 78 -62.5 229.5t-15.5 381.5zM371 506q0 -164 28.5 -238.5t114.5 -74.5q47 0 74.5 18t42 57t18.5 97.5t4 136.5q0 82 -4 140t-19.5 96t-43 55.5t-74.5 17.5q-86 0 -113.5 -73.5t-27.5 -231.5z" />
<glyph unicode="7" d="M84 1268v254h852v-222q-315 -586 -369 -1300h-295q23 281 118 598t272 670h-578z" />
<glyph unicode="8" d="M92 430q0 180 51 277.5t174 126.5q-195 59 -194 333q0 186 99.5 283.5t291.5 97.5q193 0 292 -98t99 -291q0 -262 -203 -325q125 -25 178.5 -117t53.5 -266q0 -248 -101.5 -363t-322.5 -115q-217 0 -317.5 111t-100.5 346zM373 438q0 -129 27.5 -187t111.5 -58 q88 0 114.5 62t26.5 206q0 137 -27.5 203.5t-113.5 66.5q-45 0 -71.5 -17.5t-42 -52t-20.5 -91t-5 -132.5zM387 1139q0 -106 26.5 -155.5t98.5 -49.5t99.5 49t27.5 156q0 109 -27.5 156.5t-103.5 47.5q-70 0 -95.5 -50t-25.5 -154z" />
<glyph unicode="9" d="M84 969q0 152 21.5 261t69.5 181t127 105.5t194 33.5q129 0 214 -38.5t142 -133.5q47 -78 62.5 -229.5t15.5 -380.5q0 -233 -13.5 -384t-58.5 -228q-55 -96 -141 -140.5t-211 -44.5q-391 0 -391 338v10h268v-16q0 -59 30.5 -91t90.5 -32q90 0 118.5 78t28.5 248v80 q-33 -51 -85 -77t-136 -26q-180 0 -263 119t-83 367zM369 1020q0 -84 4 -142.5t18.5 -95.5t43 -54t75.5 -17q88 0 113.5 73.5t25.5 235.5q0 158 -26.5 233.5t-114.5 75.5q-47 0 -74.5 -19.5t-42 -57.5t-18.5 -96t-4 -136z" />
<glyph unicode=":" horiz-adv-x="559" d="M152 0v276h256v-276h-256zM152 862v277h256v-277h-256z" />
<glyph unicode=";" horiz-adv-x="559" d="M152 0v276h256v-294q0 -53 -19.5 -102.5t-53.5 -88.5t-81 -64.5t-102 -27.5v104q63 6 100 54.5t37 126.5v16h-137zM152 862v277h256v-277h-256z" />
<glyph unicode="&#x3c;" horiz-adv-x="1705" d="M264 512v199l1178 483v-219l-893 -365l893 -364v-219z" />
<glyph unicode="=" horiz-adv-x="1705" d="M254 297v199h1198v-199h-1198zM254 727v199h1198v-199h-1198z" />
<glyph unicode="&#x3e;" horiz-adv-x="1705" d="M264 27v219l895 364l-895 365v219l1178 -483v-199z" />
<glyph unicode="?" horiz-adv-x="1005" d="M109 1126v39q0 199 100 305.5t293 106.5q186 0 290.5 -103.5t104.5 -287.5q0 -139 -61 -238q-47 -78 -106.5 -141.5t-106.5 -128.5q-37 -49 -53.5 -104.5t-16.5 -122.5q0 -10 1 -18.5t1 -18.5h-242q-2 18 -2 36.5v34.5q0 115 29 194t90 157q33 43 66.5 78.5t60.5 76.5 t43 90t16 117q0 164 -124 164q-133 0 -134 -199v-37h-249zM309 0v266h256v-266h-256z" />
<glyph unicode="@" horiz-adv-x="2048" d="M90 520q0 168 52.5 318.5t154.5 275.5q147 180 354 273.5t465 93.5q174 0 321.5 -46t254.5 -128q268 -207 268 -543q0 -166 -65.5 -305.5t-188.5 -237.5q-143 -115 -324 -115q-213 0 -215 166q-55 -86 -126.5 -124.5t-170.5 -38.5q-160 0 -241.5 87t-81.5 253 q0 121 38 224t103.5 178t153.5 118t188 43q160 0 236 -131l53 98h178l-147 -598q-6 -25 -7 -41q0 -70 95 -70q37 0 79 18.5t82 57.5q174 162 175 422q0 117 -47.5 217t-134.5 174t-209.5 116t-272.5 42q-285 0 -483 -135q-170 -115 -261.5 -285t-91.5 -375 q0 -154 54.5 -278.5t154 -211.5t239.5 -135.5t312 -48.5q164 0 317.5 49.5t286.5 141.5l82 -117q-309 -231 -682 -231q-197 0 -356.5 49t-282.5 143q-309 240 -309 637zM760 444q0 -188 158 -188q80 0 149.5 60.5t95.5 166.5l54 217q-25 166 -175 166q-55 0 -106 -32.5 t-90 -90t-62.5 -134.5t-23.5 -165z" />
<glyph unicode="A" horiz-adv-x="1120" d="M18 0l347 1540h385l350 -1540h-309l-76 387h-330l-74 -387h-293zM430 618h244l-123 646z" />
<glyph unicode="B" horiz-adv-x="1116" d="M131 0v1540h461q199 0 295 -91t96 -284q0 -305 -190 -338q106 -16 167.5 -106t61.5 -246q0 -248 -102.5 -361.5t-319.5 -113.5h-469zM410 219h118q111 0 156 54.5t45 189.5q0 74 -12 121t-40 74.5t-73 39t-108 11.5h-86v-490zM410 915h96q55 0 91 11.5t58.5 37t31.5 67.5 t9 104q0 57 -10 96t-32.5 60.5t-61.5 30.5t-94 9h-88v-416z" />
<glyph unicode="C" horiz-adv-x="1122" d="M100 788q0 223 17.5 369t60.5 219q63 109 155.5 155t233.5 46q236 0 341.5 -123t107.5 -391h-279v37q0 248 -164 248q-68 0 -103.5 -32t-52 -98.5t-19.5 -172t-3 -252.5q0 -162 3 -274.5t19.5 -184.5t52.5 -104.5t101 -32.5q102 0 137 77.5t35 253.5v21h279 q0 -16 1 -29.5t1 -30.5q0 -268 -111.5 -397t-345.5 -129q-109 0 -187.5 27.5t-137.5 89.5q-49 51 -78 118.5t-42 154.5t-17.5 194.5t-4.5 240.5z" />
<glyph unicode="D" horiz-adv-x="1204" d="M131 0v1540h461q127 0 215 -21.5t147 -80.5q49 -49 78 -107.5t44.5 -129.5t20.5 -154.5t5 -182.5q0 -111 -2 -209t-11.5 -184t-30 -162t-57.5 -139q-33 -57 -75.5 -91t-101 -51.5t-132.5 -22.5t-166 -5h-395zM412 227h127q74 0 122 9.5t76 52.5q49 74 61.5 196.5 t12.5 302.5q0 184 -15.5 301t-72.5 179q-29 31 -74 39t-114 8h-123v-1088z" />
<glyph unicode="E" horiz-adv-x="1013" d="M131 0v1540h791v-256h-506v-356h471v-244h-471v-424h518v-260h-803z" />
<glyph unicode="F" horiz-adv-x="1001" d="M131 0v1540h805v-252h-518v-364h489v-246h-489v-678h-287z" />
<glyph unicode="G" horiz-adv-x="1206" d="M100 817q0 211 21.5 354.5t75.5 223.5q61 94 160.5 137t244.5 43q248 0 365.5 -117t117.5 -364v-39h-268v16q0 279 -205 279q-80 0 -124 -36t-64.5 -110t-24.5 -187.5t-4 -271.5q0 -143 7.5 -246.5t30 -170t61 -98t104.5 -31.5q119 0 165 80.5t46 261.5v53h-199v246h475 v-840h-194l-21 170q-45 -113 -121.5 -160t-209.5 -47t-218 51.5t-134.5 155.5t-68 265t-18.5 382z" />
<glyph unicode="H" horiz-adv-x="1224" d="M131 0v1540h285v-604h393v604h285v-1540h-285v698h-393v-698h-285z" />
<glyph unicode="I" horiz-adv-x="548" d="M131 0v1540h287v-1540h-287z" />
<glyph unicode="J" horiz-adv-x="903" d="M25 330v157h262v-182q0 -121 100 -121q68 0 82 46t14 149v1161h281v-1083q0 -109 -3 -186.5t-26 -125.5q-43 -92 -129 -137t-221 -45q-360 0 -360 367z" />
<glyph unicode="K" horiz-adv-x="1118" d="M131 0v1540h281v-643l350 643h319l-389 -639l414 -901h-315l-277 637l-102 -170v-467h-281z" />
<glyph unicode="L" horiz-adv-x="999" d="M131 0v1540h287v-1278h518v-262h-805z" />
<glyph unicode="M" horiz-adv-x="1548" d="M131 0v1540h432l211 -997l211 997h432v-1540h-274l6 1366l-287 -1366h-176l-287 1366l7 -1366h-275z" />
<glyph unicode="N" horiz-adv-x="1220" d="M131 0v1540h295l401 -1077l-8 1077h271v-1540h-293l-404 1079l8 -1079h-270z" />
<glyph unicode="O" horiz-adv-x="1202" d="M100 770q0 229 20.5 381t74.5 231q70 109 165 152t240 43t239.5 -43t166.5 -152q53 -82 73.5 -232.5t20.5 -379.5q0 -227 -20.5 -378.5t-73.5 -233.5q-72 -109 -166.5 -152t-239.5 -43t-240.5 43t-164.5 152q-53 80 -74 231.5t-21 380.5zM393 770q0 -152 5 -260.5 t25.5 -179t62.5 -104t116 -33.5t115 33.5t61.5 104t24.5 179t4 260.5q0 150 -4 259.5t-24.5 181t-62.5 105.5t-116 34t-116 -34t-62.5 -105.5t-24.5 -181t-4 -259.5z" />
<glyph unicode="P" horiz-adv-x="1116" d="M131 0v1540h498q113 0 193.5 -24.5t133 -77t77 -135t24.5 -199.5q0 -229 -106.5 -340t-325.5 -111h-209v-653h-285zM408 866h120q131 0 186.5 50.5t55.5 181.5q0 70 -13.5 113.5t-42 69.5t-73.5 35t-109 9h-124v-459z" />
<glyph unicode="Q" horiz-adv-x="1202" d="M100 770q0 229 20.5 379.5t74.5 232.5q70 109 165 152t240 43t239.5 -43t166.5 -152q53 -82 73.5 -233.5t20.5 -378.5q0 -244 -21.5 -395.5t-72.5 -216.5l172 -172l-146 -148l-176 176q-55 -29 -118.5 -40t-137.5 -11q-145 0 -240.5 43t-164.5 152q-53 82 -74 233.5 t-21 378.5zM393 770q0 -150 5 -259.5t24.5 -180t58.5 -104t107 -33.5q16 0 35.5 3t44.5 7l-84 86l143 145l61 -63q10 78 15.5 162.5t5.5 181.5q0 166 -4 285.5t-23.5 197.5t-62.5 115t-119 37q-74 0 -116 -34t-62.5 -105.5t-24.5 -181t-4 -259.5z" />
<glyph unicode="R" horiz-adv-x="1181" d="M131 0v1540h514q231 0 334.5 -94t103.5 -309q0 -152 -55 -237t-162 -101q80 -20 122 -52t61.5 -77t23.5 -103.5t6 -132.5l8 -205q4 -76 19.5 -131t58.5 -98h-340q-16 49 -20 108.5t-6 131.5l-4 161v41q0 76 -16.5 122t-51.5 70.5t-90 33t-131 8.5h-98v-676h-277zM408 889 h165q125 0 173.5 50t48.5 179q0 123 -57.5 165t-188.5 42h-141v-436z" />
<glyph unicode="S" horiz-adv-x="1122" d="M98 449q0 23 1 45t3 47h287v-99q0 -125 30 -185t128 -60q186 0 186 182q0 41 -11 72.5t-32.5 59.5t-54.5 55.5t-78 58.5l-147 104q-74 51 -129.5 95t-91 92.5t-54 106.5t-18.5 140q0 195 114.5 304.5t317.5 109.5q215 0 328.5 -115.5t113.5 -337.5v-27.5t-2 -27.5h-272 v41q0 123 -40 178t-136 55q-70 0 -109 -40.5t-39 -112.5q0 -74 48 -118t132 -99l158 -107q76 -51 130 -98t90 -100.5t52.5 -118t16.5 -148.5q0 -211 -119 -324.5t-344 -113.5q-233 0 -346 119t-113 367z" />
<glyph unicode="T" horiz-adv-x="987" d="M20 1286v254h947v-254h-330v-1286h-287v1286h-330z" />
<glyph unicode="U" horiz-adv-x="1222" d="M131 477v1063h287v-1038q0 -80 8 -137.5t29.5 -95.5t60.5 -55t100 -17t99.5 18t60 56t28.5 96.5t7 138.5v1034h283v-1063q0 -111 -11.5 -195.5t-64.5 -156.5q-125 -162 -406 -162q-137 0 -229 28.5t-148.5 91t-80 160t-23.5 234.5z" />
<glyph unicode="V" horiz-adv-x="1120" d="M27 1540h307l229 -1229l207 1229h303l-323 -1540h-377z" />
<glyph unicode="W" horiz-adv-x="1677" d="M37 1540h297l188 -1167l201 1167h238l221 -1190l164 1190h294l-280 -1540h-340l-178 973l-164 -973h-342z" />
<glyph unicode="X" horiz-adv-x="1122" d="M18 0l377 786l-358 754h323l205 -485l209 485h320l-371 -754l381 -786h-324l-223 514l-227 -514h-312z" />
<glyph unicode="Y" horiz-adv-x="1126" d="M18 1540h318l233 -579l230 579h309l-397 -887v-653h-289v653z" />
<glyph unicode="Z" horiz-adv-x="991" d="M61 0v260l541 1040h-514v240h819v-237l-534 -1043h557v-260h-869z" />
<glyph unicode="[" horiz-adv-x="671" d="M160 -418v1958h411v-170h-159v-1618h159v-170h-411z" />
<glyph unicode="\" horiz-adv-x="628" d="M-61 1577h151l578 -1767h-152z" />
<glyph unicode="]" horiz-adv-x="671" d="M78 -248h162v1618h-162v170h411v-1958h-411v170z" />
<glyph unicode="^" horiz-adv-x="2048" d="M416 899l481 561h252l481 -561h-235l-371 371l-373 -371h-235z" />
<glyph unicode="_" d="M0 -279h1024v-204h-1024v204z" />
<glyph unicode="`" d="M223 1565h256l174 -285h-125z" />
<glyph unicode="a" horiz-adv-x="993" d="M92 305q0 82 19.5 140.5t58.5 103.5t99.5 81t142.5 72q51 23 91 39.5t66.5 35t40 43t13.5 63.5q0 114 -117 114h-2q-74 0 -108 -39.5t-34 -121.5v-23h-260q0 199 95.5 286t306.5 87q106 0 179 -19.5t118 -63.5t64.5 -113.5t19.5 -170.5v-653q0 -45 8 -85t31 -81h-260 q-16 25 -29 113q-84 -143 -264 -144q-131 0 -205 88t-74 248zM369 328q0 -150 118 -150q139 0 140 244v184q-133 -68 -195.5 -127t-62.5 -151z" />
<glyph unicode="b" horiz-adv-x="995" d="M117 0v1540h268v-481q66 129 227 129q90 0 147.5 -36t91.5 -111.5t47 -191.5t13 -276q0 -158 -14 -272.5t-49 -188t-94.5 -108.5t-147.5 -35q-170 0 -235 152v-121h-254zM377 530q0 -90 4 -154.5t18.5 -105.5t42 -60.5t74.5 -19.5q43 0 67.5 23t37 70t15.5 119.5t3 172.5 q0 98 -2 172t-14.5 121t-37 71t-69.5 24q-49 0 -76.5 -26t-42 -79t-17.5 -134t-3 -194z" />
<glyph unicode="c" horiz-adv-x="929" d="M82 578q0 160 16.5 275.5t60.5 190t119.5 109.5t194.5 35q193 0 283 -94.5t90 -294.5v-41h-256v26q0 102 -25.5 149.5t-89.5 47.5q-66 0 -91.5 -47t-25.5 -148v-399q0 -115 25 -164t90 -49q74 0 97.5 60.5t23.5 195.5v25h252q2 -16 2 -32.5v-33.5q0 -215 -90 -317.5 t-285 -102.5q-119 0 -194.5 35t-119.5 108.5t-60.5 189.5t-16.5 276z" />
<glyph unicode="d" horiz-adv-x="995" d="M84 573q0 160 13.5 276t47 191.5t91 111.5t147.5 36q162 0 227 -129v481h269v-1540h-254v121q-66 -152 -236 -152q-90 0 -148.5 35t-93 108.5t-49 188.5t-14.5 272zM356 596q0 -106 3 -183t15.5 -126t37 -73t67.5 -24q45 0 73 17.5t42 56.5t19 97.5t5 142.5q0 119 -3 206 t-16 143t-41 83t-79 27q-43 0 -67.5 -22.5t-37 -68t-15.5 -114t-3 -162.5z" />
<glyph unicode="e" horiz-adv-x="974" d="M84 616q0 156 13.5 266.5t74.5 184.5q100 121 322 121q213 0 313 -131q55 -74 67.5 -178.5t12.5 -249.5v-88h-527q-2 -16 -2 -35v-39q0 -156 28 -226.5t106 -70.5q74 0 104.5 55.5t30.5 171.5h252q0 -12 1 -23.5t1 -21.5q0 -201 -94.5 -292t-299.5 -91q-106 0 -180 25.5 t-121 85.5q-37 45 -58.5 100.5t-30.5 121t-11 144t-2 170.5zM356 774q0 -4 1 -16.5t1 -32.5h260v49q0 111 -26.5 160t-104.5 49q-76 0 -103.5 -49t-27.5 -160z" />
<glyph unicode="f" horiz-adv-x="563" d="M37 958v199h104v115q0 145 54.5 209.5t193.5 64.5q51 0 129 -6v-201q-8 0 -14 1t-12 1q-82 0 -82 -77v-107h108v-199h-108v-958h-269v958h-104z" />
<glyph unicode="g" horiz-adv-x="995" d="M84 584q0 158 14.5 272.5t49 188t93 108.5t148.5 35q170 0 236 -152v121h254v-1065q0 -111 -9.5 -194.5t-54.5 -149.5t-133 -101.5t-217 -35.5q-174 0 -264 67.5t-92 194.5h266q4 -72 98 -72q84 0 110.5 51.5t26.5 165.5v80q-68 -129 -219 -129q-94 0 -153.5 36 t-93 110.5t-47 190.5t-13.5 278zM356 559q0 -94 3 -162.5t15.5 -113.5t37 -66.5t67.5 -21.5q51 0 79 26.5t41 82.5t16 143.5t3 205.5q0 82 -5 141.5t-19 98.5t-42 56.5t-73 17.5q-43 0 -67.5 -23.5t-37 -74t-15.5 -127t-3 -183.5z" />
<glyph unicode="h" horiz-adv-x="993" d="M117 0v1540h266v-493q35 68 97.5 104.5t140.5 36.5q125 0 192.5 -70.5t67.5 -208.5v-909h-258v776q0 92 -18.5 137t-86.5 45q-82 0 -108.5 -55t-26.5 -166v-737h-266z" />
<glyph unicode="i" horiz-adv-x="495" d="M115 0v1157h266v-1157h-266zM115 1300v240h266v-240h-266z" />
<glyph unicode="j" horiz-adv-x="514" d="M37 -166q35 0 55.5 5t29.5 18.5t11 37t2 62.5v1200h262v-1204q0 -98 -7 -165t-34.5 -106.5t-82 -56t-148.5 -16.5q-39 0 -88 6v219zM133 1300v240h264v-240h-264z" />
<glyph unicode="k" horiz-adv-x="884" d="M117 0v1540h260v-805l239 422h281l-289 -442l293 -715h-291l-168 463l-65 -103v-360h-260z" />
<glyph unicode="l" horiz-adv-x="495" d="M115 0v1540h266v-1540h-266z" />
<glyph unicode="m" horiz-adv-x="1538" d="M119 0v1157h248v-133q45 88 106.5 126t173.5 38q88 0 149.5 -40t88.5 -106q53 78 114.5 112t151.5 34q276 0 276 -299v-889h-262v739q0 57 -4 98.5t-17.5 68t-39 38.5t-70.5 12q-78 0 -103.5 -52t-25.5 -159v-745h-264v752q0 106 -23.5 155t-99.5 49q-78 0 -106.5 -49 t-28.5 -151v-756h-264z" />
<glyph unicode="n" horiz-adv-x="993" d="M117 0v1157h262v-117q84 147 242 148q125 0 192.5 -70.5t67.5 -208.5v-909h-258v776q0 94 -24 139.5t-89 45.5q-72 0 -98.5 -55.5t-26.5 -168.5v-737h-268z" />
<glyph unicode="o" horiz-adv-x="978" d="M82 578q0 162 17.5 277.5t63.5 189t125 108.5t201 35q123 0 202 -35t125 -108.5t63.5 -189.5t17.5 -277q0 -162 -17.5 -277t-63.5 -188.5t-125 -108.5t-202 -35t-201.5 35t-124.5 108.5t-63.5 188.5t-17.5 277zM356 563q0 -106 2 -181t14.5 -121t39 -66.5t75.5 -20.5 t77 19.5t40 61.5t15.5 108.5t3.5 160.5v113q0 90 -3.5 154.5t-16.5 106.5t-39.5 62.5t-74.5 20.5q-47 0 -73.5 -18.5t-40 -57.5t-16.5 -97t-3 -138v-80v-27z" />
<glyph unicode="p" horiz-adv-x="995" d="M117 -389v1546h254v-121q66 152 235 152q88 0 147.5 -35t94.5 -108.5t49 -188.5t14 -272q0 -160 -13 -275.5t-47 -191.5t-91.5 -112t-147.5 -36q-162 0 -227 129v-487h-268zM377 627q0 -113 3 -194t17.5 -134t42 -78.5t76.5 -25.5q45 0 69.5 23.5t37 70.5t14.5 120.5 t2 172.5q0 100 -3 172.5t-15.5 120t-37 70t-67.5 22.5q-47 0 -74.5 -19.5t-42 -60.5t-18.5 -105.5t-4 -154.5z" />
<glyph unicode="q" horiz-adv-x="995" d="M84 584q0 158 14.5 272.5t49 188t93 108.5t148.5 35q170 0 236 -152v121h254v-1546h-269v487q-66 -129 -227 -129q-90 0 -147.5 36t-91 112t-47 191.5t-13.5 275.5zM356 559q0 -94 3 -162.5t15.5 -113.5t37 -66.5t67.5 -21.5q51 0 79 26.5t41 82.5t16 143.5t3 205.5 q0 82 -5 141.5t-19 98.5t-42 56.5t-73 17.5q-43 0 -67.5 -23.5t-37 -74t-15.5 -127t-3 -183.5z" />
<glyph unicode="r" horiz-adv-x="692" d="M119 0v1157h256v-188q53 111 113.5 164t156.5 55v-326q-23 4 -39 4h-28q-88 0 -137.5 -51t-49.5 -137v-678h-272z" />
<glyph unicode="s" horiz-adv-x="901" d="M74 340q0 10 1 21.5t1 23.5h241v-33q0 -98 30 -141t102 -43q57 0 88.5 29.5t31.5 83.5q0 31 -13 53t-36.5 42.5t-57.5 41t-73 49.5q-72 49 -128 91t-96 87t-61.5 99.5t-21.5 127.5q0 154 94 235t279 81q352 0 352 -361v-24h-236v24q0 162 -133 162q-51 0 -80.5 -27.5 t-29.5 -72.5q0 -53 36.5 -89t108.5 -83q78 -53 142.5 -95t111.5 -89.5t72.5 -104.5t25.5 -137q0 -152 -96 -237t-283 -85q-193 0 -282.5 89t-89.5 282z" />
<glyph unicode="t" horiz-adv-x="557" d="M27 958v199h104v316h268v-316h111v-199h-111v-530v-78q0 -78 12.5 -110.5t69.5 -32.5h13.5t15.5 2v-209q-47 -4 -84 -7t-59 -3q-76 0 -122 15t-72 49t-34 85t-8 125v694h-104z" />
<glyph unicode="u" horiz-adv-x="991" d="M113 248v909h258v-756q0 -100 21.5 -151t92.5 -51q72 0 97.5 52t25.5 167v739h269v-1157h-263v115q-84 -145 -243 -146q-125 0 -191.5 71t-66.5 208z" />
<glyph unicode="v" horiz-adv-x="909" d="M23 1157h284l154 -885l147 885h277l-267 -1157h-327z" />
<glyph unicode="w" horiz-adv-x="1341" d="M27 1157h280l123 -856l131 856h219l156 -868l111 868h266l-223 -1157h-287l-131 688l-105 -688h-293z" />
<glyph unicode="x" horiz-adv-x="894" d="M14 0l305 592l-292 565h305l125 -289l125 289h292l-286 -565l293 -592h-297l-133 309l-134 -309h-303z" />
<glyph unicode="y" horiz-adv-x="909" d="M20 1157h283l160 -835l155 835h271l-301 -1266q-18 -78 -41 -130t-58.5 -85.5t-88 -48t-130.5 -14.5q-20 0 -42.5 2t-51.5 6v201q12 -2 22.5 -2h20.5q59 0 84 18.5t25 59.5q0 10 -2 26.5t-9 38.5z" />
<glyph unicode="z" horiz-adv-x="784" d="M43 0v213l391 719h-387v225h688v-194l-403 -736h407v-227h-696z" />
<glyph unicode="{" d="M158 426v209q10 0 20 -1t21 -1q123 0 173 59.5t50 194.5v250q0 109 16.5 180.5t87.5 112.5q51 29 120 39t161 10q18 0 36.5 -1t39.5 -1v-209q-12 0 -24.5 1t-22.5 1q-55 0 -89 -10.5t-52.5 -34t-24.5 -62.5t-6 -94v-240q0 -68 -8.5 -117.5t-32 -84.5t-63.5 -58.5 t-103 -38.5q63 -14 103 -36.5t63.5 -58.5t32 -85t8.5 -117v-241q0 -55 6 -94t24.5 -61.5t52 -33t89.5 -10.5q10 0 22 1t25 1v-209q-20 0 -39 -1t-37 -1q-92 0 -160.5 10.5t-120.5 38.5q-72 41 -88 112t-16 179v252q0 135 -50 193.5t-173 58.5q-10 0 -20.5 -1t-20.5 -1z" />
<glyph unicode="|" d="M410 -483v2048h206v-2048h-206z" />
<glyph unicode="}" d="M143 -205q12 0 24.5 -1t22.5 -1q55 0 89 10.5t52.5 33t24.5 61.5t6 94v239q0 68 8.5 118t31 85t62.5 58.5t105 37.5q-63 14 -103 38t-63.5 59t-32 85t-8.5 117v242q0 55 -6 94t-24.5 61.5t-52 33t-89.5 10.5q-10 0 -22 -1t-25 -1v209h68q96 0 167 -10.5t122 -39.5 q70 -41 87 -111.5t17 -178.5v-252q0 -135 50.5 -193.5t172.5 -58.5q10 0 20.5 1t20.5 1v-209h-37q-127 0 -177 -56.5t-50 -193.5v-252q0 -109 -16.5 -180.5t-87.5 -110.5q-51 -29 -120 -39t-161 -10q-18 0 -36.5 1t-39.5 1v209z" />
<glyph unicode="~" horiz-adv-x="1705" d="M178 418v221q213 143 387 143q90 0 160 -18.5t135 -40.5q74 -25 145.5 -49.5t149.5 -24.5q92 0 181 39t194 115v-221q-100 -68 -192.5 -103t-186.5 -35q-92 0 -184 31q-106 35 -202.5 67.5t-201.5 32.5q-92 0 -184 -39.5t-201 -117.5z" />
<glyph unicode="&#xa1;" horiz-adv-x="598" d="M160 0v500l51 639h172l51 -639v-500h-274zM166 1264v276h262v-276h-262z" />
<glyph unicode="&#xa2;" d="M145 618q0 141 8.5 247t37 177.5t84 113.5t151.5 54v279h182v-279q260 -33 260 -368v-30.5t-2 -31.5h-256v49q0 92 -15 134.5t-77 42.5q-72 0 -87 -64.5t-15 -210.5v-258q0 -139 15 -202.5t83 -63.5q63 0 80.5 54t17.5 177v43h252q0 -16 1 -29.5t1 -27.5 q0 -403 -258 -424v-328h-182v328q-92 12 -148.5 54t-85 118t-38 186.5t-9.5 259.5z" />
<glyph unicode="&#xa3;" d="M72 164q100 70 153.5 161t53.5 183q0 29 -3.5 65.5t-13.5 79.5h-190v142h127q-94 154 -95 342q0 94 31 170.5t87.5 130t136 83t178.5 29.5q207 0 313 -102t106 -305v-32.5t-2 -33.5h-256v37q0 117 -37.5 172t-123.5 55q-76 0 -118 -55t-42 -160q0 -66 22.5 -150.5 t71.5 -180.5h291v-142h-242q12 -43 12 -86q0 -190 -225 -379q53 29 101.5 44.5t97.5 15.5q68 0 128 -19.5t126 -19.5q74 0 168 63l59 -223q-102 -74 -244 -74q-51 0 -99 9.5t-95 20.5t-92 20.5t-88 9.5q-94 0 -222 -64z" />
<glyph unicode="&#xa4;" horiz-adv-x="1241" d="M68 438l202 205q-76 106 -75 242q0 135 75 241l-202 205l104 107l205 -203q51 37 110.5 57.5t133.5 20.5q139 0 247 -78l203 203l105 -107l-203 -205q76 -106 76 -241q0 -133 -76 -242l203 -205l-105 -104l-203 203q-51 -37 -111.5 -57.5t-133.5 -20.5q-141 0 -246 78 l-205 -203zM346 885q0 -57 21.5 -107.5t59.5 -87.5t88 -58.5t108 -21.5q57 0 107 21.5t88 58.5t59.5 87t21.5 108q0 55 -21.5 105t-59.5 88t-88 60.5t-107 22.5t-107.5 -22.5t-88.5 -60.5t-59.5 -88t-21.5 -105z" />
<glyph unicode="&#xa5;" horiz-adv-x="1138" d="M33 1522h284l258 -594l252 594h277l-215 -467h203v-144h-267l-65 -141h332v-143h-385v-627h-269v627h-389v143h334l-64 141h-270v144h203z" />
<glyph unicode="&#xa6;" d="M410 -350v758h206v-758h-206zM410 674v758h206v-758h-206z" />
<glyph unicode="&#xa7;" d="M78 758q0 98 49 163.5t141 92.5q-117 80 -116 237q0 156 99 241t288 85q178 0 269 -81t91 -234q0 -8 -1 -15.5t-1 -17.5h-250v14q0 68 -27.5 100.5t-91.5 32.5q-119 0 -118 -96q0 -35 10 -59.5t29.5 -46t49 -42t68.5 -47.5l150 -106q55 -39 98 -74t73 -73.5t44 -84 t14 -102.5q0 -197 -188 -248q68 -41 98.5 -112.5t30.5 -178.5q0 -319 -398 -319q-373 0 -372 334q0 10 1 21.5t1 21.5h254q0 -8 -1 -15.5t-1 -15.5q0 -135 135 -135q129 0 129 115q0 49 -32 81.5t-89 73.5l-248 187q-45 33 -79.5 64.5t-59.5 67.5t-37 77t-12 94zM315 803 q0 -35 21.5 -65.5t62.5 -65.5t100.5 -76t135.5 -96q74 43 74 118q0 39 -23.5 66t-64.5 57l-224 164q-82 -41 -82 -102z" />
<glyph unicode="&#xa8;" d="M231 1303v237h220v-237h-220zM573 1303v237h220v-237h-220z" />
<glyph unicode="&#xa9;" horiz-adv-x="1705" d="M111 733q0 147 55 282.5t164 246.5q104 106 236 161.5t286 55.5t288 -55.5t242 -163.5q104 -104 159.5 -239.5t55.5 -287.5q0 -154 -55 -285t-160 -235q-111 -109 -247 -166t-283 -57t-280.5 56t-241.5 165q-106 106 -162.5 240.5t-56.5 281.5zM233 735 q0 -125 46.5 -236.5t136.5 -201.5t202.5 -136t235.5 -46t236.5 46t205.5 138q88 86 133.5 196.5t45.5 239.5q0 127 -46.5 238.5t-134.5 200.5q-182 182 -440 182q-129 0 -239.5 -45t-198.5 -135q-90 -92 -136.5 -205t-46.5 -236zM453 729q0 104 28.5 187t81.5 141.5 t128 90.5t165 32q76 0 140.5 -20.5t110.5 -57.5t73.5 -89t31.5 -116h-188q-8 72 -53 109.5t-119 37.5q-88 0 -141.5 -78.5t-53.5 -230.5q0 -147 52.5 -224t150.5 -77q72 0 116 42t54 120h193q-4 -70 -32 -126t-76 -96t-114.5 -62.5t-146.5 -22.5q-186 0 -293.5 116.5 t-107.5 323.5z" />
<glyph unicode="&#xaa;" horiz-adv-x="745" d="M70 944q0 57 14 98t44 72t75 56.5t106 52.5q39 16 68 27.5t49 24.5t30.5 29.5t10.5 45.5q0 80 -88 80q-106 0 -107 -113v-17h-194q0 137 71.5 199t229.5 62q160 0 222.5 -57.5t62.5 -198.5v-457q0 -61 28 -117h-194q-10 16 -21 78q-66 -98 -198 -98q-98 0 -153.5 60 t-55.5 173zM276 961q0 -104 91 -105q104 0 104 170v129q-102 -47 -148.5 -88t-46.5 -106z" />
<glyph unicode="&#xab;" horiz-adv-x="989" d="M137 475v207l314 283v-222l-193 -163l193 -166v-221zM539 475v207l313 283v-222l-193 -163l193 -166v-221z" />
<glyph unicode="&#xac;" horiz-adv-x="1705" d="M254 668v196h1198v-502h-199v306h-999z" />
<glyph unicode="&#xad;" horiz-adv-x="671" d="M92 459v239h488v-239h-488z" />
<glyph unicode="&#xae;" horiz-adv-x="1705" d="M111 733q0 203 108 387q100 170 265 264.5t368 94.5q154 0 290 -56.5t244 -167.5q104 -104 157.5 -238t53.5 -284q0 -154 -56 -288t-163 -238q-111 -106 -246 -161.5t-280 -55.5q-150 0 -285 57t-243 168q-104 106 -158.5 239.5t-54.5 278.5zM233 735q0 -123 45.5 -234.5 t133.5 -199.5q90 -92 203.5 -140t236.5 -48t235.5 47t204.5 135q88 86 135.5 196.5t47.5 231.5q0 266 -177 446q-182 187 -444 187q-256 0 -432 -176q-92 -92 -140.5 -207t-48.5 -238zM545 336v825h323q352 0 353 -237q0 -82 -47.5 -139.5t-133.5 -79.5l185 -369h-224 l-157 338h-99v-338h-200zM745 795h99q86 0 128 27.5t42 88.5q0 66 -44 94.5t-136 28.5h-89v-239z" />
<glyph unicode="&#xaf;" d="M252 1341v162h520v-162h-520z" />
<glyph unicode="&#xb0;" horiz-adv-x="673" d="M35 1159q0 63 23.5 118.5t64.5 97.5t96.5 65.5t118.5 23.5t118.5 -24.5t96.5 -65.5t64.5 -96t23.5 -119q0 -61 -23.5 -116.5t-65.5 -97.5t-97.5 -65.5t-118.5 -23.5t-117.5 23.5t-95.5 64.5t-64.5 96.5t-23.5 118.5zM162 1161q0 -74 51 -125t125 -51q37 0 68.5 14.5 t55 39t37 56t13.5 66.5q0 72 -51 123t-123 51q-37 0 -68.5 -13t-55.5 -36.5t-38 -55.5t-14 -69z" />
<glyph unicode="&#xb1;" horiz-adv-x="1705" d="M254 -2v199h1198v-199h-1198zM254 698v199h498v326h202v-326h498v-199h-498v-325h-202v325h-498z" />
<glyph unicode="&#xb2;" horiz-adv-x="675" d="M57 608v29q0 215 195 395q41 39 79 70t60 63q41 53 41 129q0 117 -96 117t-96 -147v-35h-177q0 8 -1 15t-1 16q0 145 68 211.5t213 66.5q137 0 209 -60.5t72 -174.5q0 -104 -54 -185q-23 -35 -64.5 -71.5t-88.5 -83.5q-63 -63 -106.5 -112.5t-59.5 -94.5h360v-148h-553z " />
<glyph unicode="&#xb3;" horiz-adv-x="675" d="M53 883q0 10 1 18t1 19h178v-13q0 -98 21.5 -141t81.5 -43q59 0 79.5 39t20.5 127t-24.5 120.5t-110.5 32.5h-23.5t-29.5 -2v121h12q92 0 126 29t34 102q0 66 -18.5 94.5t-71.5 28.5q-49 0 -69.5 -31.5t-20.5 -97.5v-22h-174q-2 10 -2.5 18t-0.5 16q0 240 275 240 q127 0 195.5 -61.5t68.5 -176.5q0 -160 -119 -192q141 -33 142 -219q0 -297 -295 -297q-141 0 -209 71.5t-68 219.5z" />
<glyph unicode="&#xb4;" d="M371 1280l174 285h256l-305 -285h-125z" />
<glyph unicode="&#xb6;" d="M41 1130q0 76 26.5 140.5t78 110.5t124 72t162.5 26h551v-111h-113v-1368h-151v1368h-160v-1368h-151v784q-86 2 -154 30t-115 73t-72.5 107.5t-25.5 135.5z" />
<glyph unicode="&#xb7;" horiz-adv-x="512" d="M96 758q0 68 47 114t113 46q33 0 62.5 -13.5t51 -35t34 -50t12.5 -61.5t-12.5 -61.5t-34 -50t-51 -34t-62.5 -12.5q-66 0 -113 45t-47 113z" />
<glyph unicode="&#xb8;" d="M272 -319q76 -12 128.5 -19.5t84.5 -7.5q86 0 86 72q0 61 -104 61h-23v213h115v-84q98 -8 149.5 -57t51.5 -135q0 -98 -65.5 -153.5t-188.5 -55.5q-45 0 -102.5 7t-131.5 21v138z" />
<glyph unicode="&#xb9;" horiz-adv-x="675" d="M59 1260v108q254 6 279 170h125v-930h-178v652h-226z" />
<glyph unicode="&#xba;" horiz-adv-x="735" d="M61 1135q0 113 13.5 193.5t47.5 132.5t93 77t152 25q92 0 151.5 -25t94 -77t48 -133t13.5 -193q0 -113 -13.5 -194t-48 -132t-94 -74.5t-151.5 -23.5t-151.5 23.5t-93.5 74.5t-47.5 132t-13.5 194zM268 1124q0 -74 1 -126t10.5 -84.5t30 -47t57.5 -14.5t57 13.5t29.5 43 t11.5 76.5t2 113v80q0 125 -14.5 182t-85.5 57q-35 0 -55.5 -13t-30 -40t-11.5 -68t-2 -96v-55v-21z" />
<glyph unicode="&#xbb;" horiz-adv-x="989" d="M137 193v221l193 166l-193 163v222l314 -283v-207zM539 193v221l192 166l-192 163v222l313 -283v-207z" />
<glyph unicode="&#xbc;" horiz-adv-x="1632" d="M57 1278v102q242 4 267 158h118v-868h-170v608h-215zM303 -29l868 1579h156l-870 -1579h-154zM1030 170v139l289 543h184v-553h82v-129h-82v-170h-166v170h-307zM1161 295h180v352z" />
<glyph unicode="&#xbd;" horiz-adv-x="1632" d="M57 1278v102q242 4 267 158h118v-868h-170v608h-215zM303 -29l868 1579h156l-870 -1579h-154zM1040 27q0 199 187 368q39 35 75.5 64.5t59.5 60.5q37 49 37 121q0 109 -90 109q-49 0 -70.5 -34t-21.5 -104v-32h-168q0 8 -1 14t-1 14q0 135 63.5 197.5t202.5 62.5 q131 0 199.5 -57t68.5 -164q0 -94 -51 -172q-23 -33 -61.5 -66.5t-84.5 -76.5q-59 -59 -101 -105.5t-56 -89.5h342v-137h-527q0 6 -1 13t-1 14z" />
<glyph unicode="&#xbe;" horiz-adv-x="1632" d="M51 926q0 8 1 16t1 19h168v-11q0 -92 20.5 -133t77.5 -41t77 36t20 120q0 82 -23.5 112.5t-105.5 30.5h-22.5t-28.5 -2v113h14q86 0 117.5 26.5t31.5 94.5q0 61 -17 87.5t-67 26.5q-47 0 -66.5 -28.5t-19.5 -89.5v-21h-168v33q0 223 261 223q123 0 187 -57.5t64 -165.5 q0 -150 -110 -180q133 -31 133 -203q0 -279 -281 -279q-135 0 -199.5 66.5t-64.5 206.5zM303 -29l868 1579h156l-870 -1579h-154zM1030 170v139l289 543h184v-553h82v-129h-82v-170h-166v170h-307zM1161 295h180v352z" />
<glyph unicode="&#xbf;" horiz-adv-x="1005" d="M106 356q0 137 62 236q47 78 107.5 142.5t107.5 129.5q37 49 53.5 104.5t16.5 123.5q0 10 -1 18t-1 18h241q2 -18 2 -35.5v-33.5q0 -117 -29.5 -196t-91.5 -158q-33 -43 -66.5 -79t-60 -77t-43 -90t-16.5 -117q0 -164 125 -164q133 0 133 199v37h252v-39 q0 -199 -101.5 -304.5t-293.5 -105.5q-186 0 -291 103.5t-105 287.5zM438 1274v266h256v-266h-256z" />
<glyph unicode="&#xc0;" horiz-adv-x="1120" d="M18 0l347 1540h385l350 -1540h-309l-76 387h-330l-74 -387h-293zM272 1954h256l174 -285h-125zM430 618h244l-123 646z" />
<glyph unicode="&#xc1;" horiz-adv-x="1120" d="M18 0l347 1540h385l350 -1540h-309l-76 387h-330l-74 -387h-293zM420 1669l174 285h256l-305 -285h-125zM430 618h244l-123 646z" />
<glyph unicode="&#xc2;" horiz-adv-x="1120" d="M18 0l347 1540h385l350 -1540h-309l-76 387h-330l-74 -387h-293zM285 1669l174 285h204l174 -285h-124l-152 150l-152 -150h-124zM430 618h244l-123 646z" />
<glyph unicode="&#xc3;" horiz-adv-x="1120" d="M18 0l347 1540h385l350 -1540h-309l-76 387h-330l-74 -387h-293zM280 1681q41 231 179 232q31 0 61 -8l111 -33q20 -6 47 -6q61 0 76 75h88q-16 -117 -66.5 -177t-120.5 -60q-27 0 -51 8l-121 35q-16 6 -33 6q-66 0 -82 -72h-88zM430 618h244l-123 646z" />
<glyph unicode="&#xc4;" horiz-adv-x="1120" d="M18 0l347 1540h385l350 -1540h-309l-76 387h-330l-74 -387h-293zM280 1692v237h220v-237h-220zM430 618h244l-123 646zM622 1692v237h220v-237h-220z" />
<glyph unicode="&#xc5;" horiz-adv-x="1120" d="M18 0l347 1518h385l350 -1518h-309l-76 387h-330l-74 -387h-293zM356 1772q0 84 58.5 142t142.5 58t141.5 -58.5t57.5 -141.5q0 -84 -57.5 -142.5t-141.5 -58.5t-142.5 58.5t-58.5 142.5zM430 618h244l-123 646zM475 1772q0 -33 24.5 -56.5t57.5 -23.5t55.5 22.5 t22.5 57.5t-21.5 56t-56.5 21t-58.5 -22t-23.5 -55z" />
<glyph unicode="&#xc6;" horiz-adv-x="1566" d="M-45 0l584 1540h946v-256h-494v-358h461v-240h-461v-428h498v-258h-772v393h-326l-131 -393h-305zM465 612h252v672h-37z" />
<glyph unicode="&#xc7;" horiz-adv-x="1122" d="M100 788q0 223 17.5 369t60.5 219q63 109 155.5 155t233.5 46q236 0 341.5 -123t107.5 -391h-279v37q0 248 -164 248q-68 0 -103.5 -32t-52 -98.5t-19.5 -172t-3 -252.5q0 -162 3 -274.5t19.5 -184.5t52.5 -104.5t101 -32.5q102 0 137 77.5t35 253.5v21h279 q0 -16 1 -29.5t1 -30.5q0 -268 -111.5 -397t-345.5 -129q-109 0 -187.5 27.5t-137.5 89.5q-49 51 -78 118.5t-42 154.5t-17.5 194.5t-4.5 240.5zM321 -319q76 -12 128.5 -19.5t84.5 -7.5q86 0 86 72q0 61 -104 61h-23v213h115v-84q98 -8 149.5 -57t51.5 -135 q0 -98 -65.5 -153.5t-188.5 -55.5q-45 0 -102.5 7t-131.5 21v138z" />
<glyph unicode="&#xc8;" horiz-adv-x="1013" d="M131 0v1540h791v-256h-506v-356h471v-244h-471v-424h518v-260h-803zM229 1954h256l174 -285h-125z" />
<glyph unicode="&#xc9;" horiz-adv-x="1013" d="M131 0v1540h791v-256h-506v-356h471v-244h-471v-424h518v-260h-803zM377 1669l174 285h256l-305 -285h-125z" />
<glyph unicode="&#xca;" horiz-adv-x="1013" d="M131 0v1540h791v-256h-506v-356h471v-244h-471v-424h518v-260h-803zM242 1669l174 285h204l174 -285h-124l-152 150l-152 -150h-124z" />
<glyph unicode="&#xcb;" horiz-adv-x="1013" d="M131 0v1540h791v-256h-506v-356h471v-244h-471v-424h518v-260h-803zM237 1692v237h220v-237h-220zM579 1692v237h220v-237h-220z" />
<glyph unicode="&#xcc;" horiz-adv-x="548" d="M-13 1954h256l174 -285h-125zM131 0v1540h287v-1540h-287z" />
<glyph unicode="&#xcd;" horiz-adv-x="548" d="M131 0v1540h287v-1540h-287zM135 1669l174 285h256l-305 -285h-125z" />
<glyph unicode="&#xce;" horiz-adv-x="548" d="M0 1669l174 285h204l174 -285h-124l-152 150l-152 -150h-124zM131 0v1540h287v-1540h-287z" />
<glyph unicode="&#xcf;" horiz-adv-x="548" d="M-5 1692v237h220v-237h-220zM131 0v1540h287v-1540h-287zM337 1692v237h220v-237h-220z" />
<glyph unicode="&#xd0;" horiz-adv-x="1208" d="M-8 715v205h143v620h461q127 0 215 -21.5t147 -80.5q49 -49 79 -107.5t45.5 -129.5t20.5 -154.5t5 -182.5q0 -111 -2 -209t-12.5 -184t-31 -162t-56.5 -139q-33 -57 -76 -91t-101.5 -51.5t-132 -22.5t-166.5 -5h-395v715h-143zM416 227h129q74 0 121 9.5t75 52.5 q49 74 61.5 196.5t12.5 302.5q0 184 -14.5 301t-71.5 179q-29 31 -74 39t-114 8h-125v-395h231v-205h-231v-488z" />
<glyph unicode="&#xd1;" horiz-adv-x="1220" d="M131 0v1540h295l401 -1077l-8 1077h271v-1540h-293l-404 1079l8 -1079h-270zM329 1681q41 231 179 232q31 0 61 -8l111 -33q20 -6 47 -6q61 0 76 75h88q-16 -117 -66.5 -177t-120.5 -60q-27 0 -51 8l-121 35q-16 6 -33 6q-66 0 -82 -72h-88z" />
<glyph unicode="&#xd2;" horiz-adv-x="1202" d="M100 770q0 229 20.5 381t74.5 231q70 109 165 152t240 43t239.5 -43t166.5 -152q53 -82 73.5 -232.5t20.5 -379.5q0 -227 -20.5 -378.5t-73.5 -233.5q-72 -109 -166.5 -152t-239.5 -43t-240.5 43t-164.5 152q-53 80 -74 231.5t-21 380.5zM313 1954h256l174 -285h-125z M393 770q0 -152 5 -260.5t25.5 -179t62.5 -104t116 -33.5t115 33.5t61.5 104t24.5 179t4 260.5q0 150 -4 259.5t-24.5 181t-62.5 105.5t-116 34t-116 -34t-62.5 -105.5t-24.5 -181t-4 -259.5z" />
<glyph unicode="&#xd3;" horiz-adv-x="1202" d="M100 770q0 229 20.5 381t74.5 231q70 109 165 152t240 43t239.5 -43t166.5 -152q53 -82 73.5 -232.5t20.5 -379.5q0 -227 -20.5 -378.5t-73.5 -233.5q-72 -109 -166.5 -152t-239.5 -43t-240.5 43t-164.5 152q-53 80 -74 231.5t-21 380.5zM393 770q0 -152 5 -260.5 t25.5 -179t62.5 -104t116 -33.5t115 33.5t61.5 104t24.5 179t4 260.5q0 150 -4 259.5t-24.5 181t-62.5 105.5t-116 34t-116 -34t-62.5 -105.5t-24.5 -181t-4 -259.5zM461 1669l174 285h256l-305 -285h-125z" />
<glyph unicode="&#xd4;" horiz-adv-x="1202" d="M100 770q0 229 20.5 381t74.5 231q70 109 165 152t240 43t239.5 -43t166.5 -152q53 -82 73.5 -232.5t20.5 -379.5q0 -227 -20.5 -378.5t-73.5 -233.5q-72 -109 -166.5 -152t-239.5 -43t-240.5 43t-164.5 152q-53 80 -74 231.5t-21 380.5zM326 1669l174 285h204l174 -285 h-124l-152 150l-152 -150h-124zM393 770q0 -152 5 -260.5t25.5 -179t62.5 -104t116 -33.5t115 33.5t61.5 104t24.5 179t4 260.5q0 150 -4 259.5t-24.5 181t-62.5 105.5t-116 34t-116 -34t-62.5 -105.5t-24.5 -181t-4 -259.5z" />
<glyph unicode="&#xd5;" horiz-adv-x="1202" d="M100 770q0 229 20.5 381t74.5 231q70 109 165 152t240 43t239.5 -43t166.5 -152q53 -82 73.5 -232.5t20.5 -379.5q0 -227 -20.5 -378.5t-73.5 -233.5q-72 -109 -166.5 -152t-239.5 -43t-240.5 43t-164.5 152q-53 80 -74 231.5t-21 380.5zM321 1681q41 231 179 232 q31 0 61 -8l111 -33q20 -6 47 -6q61 0 76 75h88q-16 -117 -66.5 -177t-120.5 -60q-27 0 -51 8l-121 35q-16 6 -33 6q-66 0 -82 -72h-88zM393 770q0 -152 5 -260.5t25.5 -179t62.5 -104t116 -33.5t115 33.5t61.5 104t24.5 179t4 260.5q0 150 -4 259.5t-24.5 181t-62.5 105.5 t-116 34t-116 -34t-62.5 -105.5t-24.5 -181t-4 -259.5z" />
<glyph unicode="&#xd6;" horiz-adv-x="1202" d="M100 770q0 229 20.5 381t74.5 231q70 109 165 152t240 43t239.5 -43t166.5 -152q53 -82 73.5 -232.5t20.5 -379.5q0 -227 -20.5 -378.5t-73.5 -233.5q-72 -109 -166.5 -152t-239.5 -43t-240.5 43t-164.5 152q-53 80 -74 231.5t-21 380.5zM321 1692v237h220v-237h-220z M393 770q0 -152 5 -260.5t25.5 -179t62.5 -104t116 -33.5t115 33.5t61.5 104t24.5 179t4 260.5q0 150 -4 259.5t-24.5 181t-62.5 105.5t-116 34t-116 -34t-62.5 -105.5t-24.5 -181t-4 -259.5zM663 1692v237h220v-237h-220z" />
<glyph unicode="&#xd7;" horiz-adv-x="1705" d="M276 160l451 450l-451 453l140 139l450 -450l451 450l141 -139l-450 -453l450 -450l-141 -140l-451 451l-450 -451z" />
<glyph unicode="&#xd8;" horiz-adv-x="1202" d="M37 -12l133 219q-39 98 -54.5 238.5t-15.5 326.5q0 475 99 623q66 98 161 140t236 42q115 0 201 -27.5t151 -91.5l82 137l131 -84l-117 -194q59 -190 60 -580q0 -219 -24.5 -368.5t-84.5 -235.5q-35 -51 -74.5 -84t-88 -52.5t-106.5 -26.5t-130 -7q-109 0 -187.5 22.5 t-142.5 80.5l-100 -160zM393 727q0 -43 1 -87t3 -89l389 627q-16 172 -180 172q-80 0 -123 -36t-62.5 -112t-23.5 -193.5t-4 -281.5zM420 338q10 -76 50 -110.5t118 -34.5q76 0 120 29.5t66.5 94t28.5 165t6 239.5v119.5t-4 120.5z" />
<glyph unicode="&#xd9;" horiz-adv-x="1222" d="M131 477v1063h287v-1038q0 -80 8 -137.5t29.5 -95.5t60.5 -55t100 -17t99.5 18t60 56t28.5 96.5t7 138.5v1034h283v-1063q0 -111 -11.5 -195.5t-64.5 -156.5q-125 -162 -406 -162q-137 0 -229 28.5t-148.5 91t-80 160t-23.5 234.5zM323 1954h256l174 -285h-125z" />
<glyph unicode="&#xda;" horiz-adv-x="1222" d="M131 477v1063h287v-1038q0 -80 8 -137.5t29.5 -95.5t60.5 -55t100 -17t99.5 18t60 56t28.5 96.5t7 138.5v1034h283v-1063q0 -111 -11.5 -195.5t-64.5 -156.5q-125 -162 -406 -162q-137 0 -229 28.5t-148.5 91t-80 160t-23.5 234.5zM471 1669l174 285h256l-305 -285h-125z " />
<glyph unicode="&#xdb;" horiz-adv-x="1222" d="M131 477v1063h287v-1038q0 -80 8 -137.5t29.5 -95.5t60.5 -55t100 -17t99.5 18t60 56t28.5 96.5t7 138.5v1034h283v-1063q0 -111 -11.5 -195.5t-64.5 -156.5q-125 -162 -406 -162q-137 0 -229 28.5t-148.5 91t-80 160t-23.5 234.5zM336 1669l174 285h204l174 -285h-124 l-152 150l-152 -150h-124z" />
<glyph unicode="&#xdc;" horiz-adv-x="1222" d="M131 477v1063h287v-1038q0 -80 8 -137.5t29.5 -95.5t60.5 -55t100 -17t99.5 18t60 56t28.5 96.5t7 138.5v1034h283v-1063q0 -111 -11.5 -195.5t-64.5 -156.5q-125 -162 -406 -162q-137 0 -229 28.5t-148.5 91t-80 160t-23.5 234.5zM331 1692v237h220v-237h-220zM673 1692 v237h220v-237h-220z" />
<glyph unicode="&#xdd;" horiz-adv-x="1126" d="M18 1540h318l233 -579l230 579h309l-397 -887v-653h-289v653zM422 1669l174 285h256l-305 -285h-125z" />
<glyph unicode="&#xde;" horiz-adv-x="1116" d="M131 0v1540h285v-276h213q223 0 325.5 -99.5t102.5 -328.5q0 -238 -105.5 -348.5t-326.5 -110.5h-209v-377h-285zM408 590h120q131 0 186.5 49t55.5 180q0 70 -13.5 114t-42 69.5t-73.5 35t-109 9.5h-124v-457z" />
<glyph unicode="&#xdf;" horiz-adv-x="995" d="M117 0v1090q0 238 84 347t284 109q188 0 286.5 -95t98.5 -275q0 -229 -143 -295q98 -43 138 -145.5t40 -282.5q0 -238 -71.5 -352.5t-225.5 -114.5q-82 0 -133 26v201q41 -20 64 -20q66 0 83 69.5t17 214.5q0 156 -25.5 226.5t-111.5 70.5h-15v184q8 -2 23 -2 q59 0 81.5 46.5t22.5 144.5q0 102 -27.5 149t-92.5 47q-68 0 -92.5 -49t-24.5 -157v-1137h-260z" />
<glyph unicode="&#xe0;" horiz-adv-x="993" d="M92 305q0 82 19.5 140.5t58.5 103.5t99.5 81t142.5 72q51 23 91 39.5t66.5 35t40 43t13.5 63.5q0 115 -119 114q-74 0 -108 -39.5t-34 -121.5v-23h-260q0 199 95.5 286t306.5 87q106 0 179 -19.5t118 -63.5t64.5 -113.5t19.5 -170.5v-653q0 -45 8 -85t31 -81h-260 q-16 25 -29 113q-84 -143 -264 -144q-131 0 -205 88t-74 248zM211 1565h256l174 -285h-125zM369 328q0 -150 118 -150q139 0 140 244v184q-133 -68 -195.5 -127t-62.5 -151z" />
<glyph unicode="&#xe1;" horiz-adv-x="993" d="M92 305q0 82 19.5 140.5t58.5 103.5t99.5 81t142.5 72q51 23 91 39.5t66.5 35t40 43t13.5 63.5q0 115 -119 114q-74 0 -108 -39.5t-34 -121.5v-23h-260q0 199 95.5 286t306.5 87q106 0 179 -19.5t118 -63.5t64.5 -113.5t19.5 -170.5v-653q0 -45 8 -85t31 -81h-260 q-16 25 -29 113q-84 -143 -264 -144q-131 0 -205 88t-74 248zM359 1280l174 285h256l-305 -285h-125zM369 328q0 -150 118 -150q139 0 140 244v184q-133 -68 -195.5 -127t-62.5 -151z" />
<glyph unicode="&#xe2;" horiz-adv-x="993" d="M92 305q0 82 19.5 140.5t58.5 103.5t99.5 81t142.5 72q51 23 91 39.5t66.5 35t40 43t13.5 63.5q0 115 -119 114q-74 0 -108 -39.5t-34 -121.5v-23h-260q0 199 95.5 286t306.5 87q106 0 179 -19.5t118 -63.5t64.5 -113.5t19.5 -170.5v-653q0 -45 8 -85t31 -81h-260 q-16 25 -29 113q-84 -143 -264 -144q-131 0 -205 88t-74 248zM224 1280l174 285h204l174 -285h-124l-152 150l-152 -150h-124zM369 328q0 -150 118 -150q139 0 140 244v184q-133 -68 -195.5 -127t-62.5 -151z" />
<glyph unicode="&#xe3;" horiz-adv-x="993" d="M92 305q0 82 19.5 140.5t58.5 103.5t99.5 81t142.5 72q51 23 91 39.5t66.5 35t40 43t13.5 63.5q0 115 -119 114q-74 0 -108 -39.5t-34 -121.5v-23h-260q0 199 95.5 286t306.5 87q106 0 179 -19.5t118 -63.5t64.5 -113.5t19.5 -170.5v-653q0 -45 8 -85t31 -81h-260 q-16 25 -29 113q-84 -143 -264 -144q-131 0 -205 88t-74 248zM219 1292q41 231 179 232q31 0 61 -8l111 -33q20 -6 47 -6q61 0 76 75h88q-16 -117 -66.5 -177t-120.5 -60q-27 0 -51 8l-121 35q-16 6 -33 6q-66 0 -82 -72h-88zM369 328q0 -150 118 -150q139 0 140 244v184 q-133 -68 -195.5 -127t-62.5 -151z" />
<glyph unicode="&#xe4;" horiz-adv-x="993" d="M92 305q0 82 19.5 140.5t58.5 103.5t99.5 81t142.5 72q51 23 91 39.5t66.5 35t40 43t13.5 63.5q0 115 -119 114q-74 0 -108 -39.5t-34 -121.5v-23h-260q0 199 95.5 286t306.5 87q106 0 179 -19.5t118 -63.5t64.5 -113.5t19.5 -170.5v-653q0 -45 8 -85t31 -81h-260 q-16 25 -29 113q-84 -143 -264 -144q-131 0 -205 88t-74 248zM219 1303v237h220v-237h-220zM369 328q0 -150 118 -150q139 0 140 244v184q-133 -68 -195.5 -127t-62.5 -151zM561 1303v237h220v-237h-220z" />
<glyph unicode="&#xe5;" horiz-adv-x="993" d="M92 305q0 82 19.5 140.5t58.5 103.5t99.5 81t142.5 72q51 23 91 39.5t66.5 35t40 43t13.5 63.5q0 115 -119 114q-74 0 -108 -39.5t-34 -121.5v-23h-260q0 199 95.5 286t306.5 87q106 0 179 -19.5t118 -63.5t64.5 -113.5t19.5 -170.5v-653q0 -45 8 -85t31 -81h-260 q-16 25 -29 113q-84 -143 -264 -144q-131 0 -205 88t-74 248zM328 1444q0 84 57 142.5t141 58.5t142.5 -58.5t58.5 -142.5t-58.5 -142.5t-142.5 -58.5t-141 58.5t-57 142.5zM369 328q0 -150 118 -150q139 0 140 244v184q-133 -68 -195.5 -127t-62.5 -151zM446 1444 q0 -33 24 -56.5t56 -23.5q33 0 56.5 22.5t23.5 57.5t-22.5 56.5t-57.5 21.5t-57.5 -22.5t-22.5 -55.5z" />
<glyph unicode="&#xe6;" horiz-adv-x="1449" d="M94 309q0 131 56.5 215t181.5 142q72 33 124 54t87 42.5t52 47.5t17 67q0 123 -133 122q-63 0 -97 -43t-34 -122v-15h-250v21q0 348 387 348q94 0 164 -18.5t119 -59.5q74 78 229 78q205 0 291 -127t86 -402q0 -29 -1 -58.5t-3 -59.5h-496v-84q0 -154 23 -221.5 t104 -67.5q63 0 90 52t27 163v14h248v-32q0 -397 -362 -398q-94 0 -162 29t-117 92q-47 -63 -120 -92t-175 -29q-336 0 -336 342zM360 319q0 -72 32 -111.5t85 -39.5q86 0 111.5 63.5t25.5 196.5v176q-66 -41 -112.5 -70.5t-78.5 -59.5t-47.5 -66.5t-15.5 -88.5zM874 725 h250v33q0 121 -26.5 174t-102.5 53q-66 0 -93.5 -53t-27.5 -166v-41z" />
<glyph unicode="&#xe7;" horiz-adv-x="929" d="M82 578q0 160 16.5 275.5t60.5 190t119.5 109.5t194.5 35q193 0 283 -94.5t90 -294.5v-41h-256v26q0 102 -25.5 149.5t-89.5 47.5q-66 0 -91.5 -47t-25.5 -148v-399q0 -115 25 -164t90 -49q74 0 97.5 60.5t23.5 195.5v25h252q2 -16 2 -32.5v-33.5q0 -215 -90 -317.5 t-285 -102.5q-119 0 -194.5 35t-119.5 108.5t-60.5 189.5t-16.5 276zM227 -319q76 -12 128.5 -19.5t84.5 -7.5q86 0 86 72q0 61 -104 61h-23v213h115v-84q98 -8 149.5 -57t51.5 -135q0 -98 -65.5 -153.5t-188.5 -55.5q-45 0 -102.5 7t-131.5 21v138z" />
<glyph unicode="&#xe8;" horiz-adv-x="974" d="M84 616q0 156 13.5 266.5t74.5 184.5q100 121 322 121q213 0 313 -131q55 -74 67.5 -178.5t12.5 -249.5v-88h-527q-2 -16 -2 -35v-39q0 -156 28 -226.5t106 -70.5q74 0 104.5 55.5t30.5 171.5h252q0 -12 1 -23.5t1 -21.5q0 -201 -94.5 -292t-299.5 -91q-106 0 -180 25.5 t-121 85.5q-37 45 -58.5 100.5t-30.5 121t-11 144t-2 170.5zM200 1565h256l174 -285h-125zM356 774q0 -4 1 -16.5t1 -32.5h260v49q0 111 -26.5 160t-104.5 49q-76 0 -103.5 -49t-27.5 -160z" />
<glyph unicode="&#xe9;" horiz-adv-x="974" d="M84 616q0 156 13.5 266.5t74.5 184.5q100 121 322 121q213 0 313 -131q55 -74 67.5 -178.5t12.5 -249.5v-88h-527q-2 -16 -2 -35v-39q0 -156 28 -226.5t106 -70.5q74 0 104.5 55.5t30.5 171.5h252q0 -12 1 -23.5t1 -21.5q0 -201 -94.5 -292t-299.5 -91q-106 0 -180 25.5 t-121 85.5q-37 45 -58.5 100.5t-30.5 121t-11 144t-2 170.5zM348 1280l174 285h256l-305 -285h-125zM356 774q0 -4 1 -16.5t1 -32.5h260v49q0 111 -26.5 160t-104.5 49q-76 0 -103.5 -49t-27.5 -160z" />
<glyph unicode="&#xea;" horiz-adv-x="974" d="M84 616q0 156 13.5 266.5t74.5 184.5q100 121 322 121q213 0 313 -131q55 -74 67.5 -178.5t12.5 -249.5v-88h-527q-2 -16 -2 -35v-39q0 -156 28 -226.5t106 -70.5q74 0 104.5 55.5t30.5 171.5h252q0 -12 1 -23.5t1 -21.5q0 -201 -94.5 -292t-299.5 -91q-106 0 -180 25.5 t-121 85.5q-37 45 -58.5 100.5t-30.5 121t-11 144t-2 170.5zM213 1280l174 285h204l174 -285h-124l-152 150l-152 -150h-124zM356 774q0 -4 1 -16.5t1 -32.5h260v49q0 111 -26.5 160t-104.5 49q-76 0 -103.5 -49t-27.5 -160z" />
<glyph unicode="&#xeb;" horiz-adv-x="974" d="M84 616q0 156 13.5 266.5t74.5 184.5q100 121 322 121q213 0 313 -131q55 -74 67.5 -178.5t12.5 -249.5v-88h-527q-2 -16 -2 -35v-39q0 -156 28 -226.5t106 -70.5q74 0 104.5 55.5t30.5 171.5h252q0 -12 1 -23.5t1 -21.5q0 -201 -94.5 -292t-299.5 -91q-106 0 -180 25.5 t-121 85.5q-37 45 -58.5 100.5t-30.5 121t-11 144t-2 170.5zM208 1303v237h220v-237h-220zM356 774q0 -4 1 -16.5t1 -32.5h260v49q0 111 -26.5 160t-104.5 49q-76 0 -103.5 -49t-27.5 -160zM550 1303v237h220v-237h-220z" />
<glyph unicode="&#xec;" horiz-adv-x="495" d="M-39 1565h256l174 -285h-125zM115 0v1157h266v-1157h-266z" />
<glyph unicode="&#xed;" horiz-adv-x="495" d="M109 1280l174 285h256l-305 -285h-125zM115 0v1157h266v-1157h-266z" />
<glyph unicode="&#xee;" horiz-adv-x="495" d="M-26 1280l174 285h204l174 -285h-124l-152 150l-152 -150h-124zM115 0v1157h266v-1157h-266z" />
<glyph unicode="&#xef;" horiz-adv-x="495" d="M-31 1303v237h220v-237h-220zM115 0v1157h266v-1157h-266zM311 1303v237h220v-237h-220z" />
<glyph unicode="&#xf0;" horiz-adv-x="978" d="M82 543q0 289 75.5 429t266.5 140q76 0 131 -47q-76 115 -154 168l-264 -146l-55 107l221 119q-86 55 -141 86l47 141q68 -35 132.5 -70.5t125.5 -76.5l258 145l66 -111l-216 -116q92 -68 154 -148t99.5 -173t53 -204.5t15.5 -242.5q0 -154 -17.5 -262.5t-63.5 -177 t-125 -101.5t-202 -33t-201.5 33t-124.5 101.5t-63.5 177t-17.5 262.5zM356 537q0 -100 3 -169t15.5 -112t39 -62.5t73.5 -19.5q51 0 79 20.5t40 64.5t14.5 115.5t2.5 174.5v78q0 80 -3.5 137t-16.5 95t-39.5 56.5t-74.5 18.5q-49 0 -75.5 -18.5t-39 -56.5t-15.5 -96 t-3 -138v-39v-49z" />
<glyph unicode="&#xf1;" horiz-adv-x="993" d="M117 0v1157h262v-117q84 147 242 148q125 0 192.5 -70.5t67.5 -208.5v-909h-258v776q0 94 -24 139.5t-89 45.5q-72 0 -98.5 -55.5t-26.5 -168.5v-737h-268zM219 1292q41 231 179 232q31 0 61 -8l111 -33q20 -6 47 -6q61 0 76 75h88q-16 -117 -66.5 -177t-120.5 -60 q-27 0 -51 8l-121 35q-16 6 -33 6q-66 0 -82 -72h-88z" />
<glyph unicode="&#xf2;" horiz-adv-x="978" d="M82 578q0 162 17.5 277.5t63.5 189t125 108.5t201 35q123 0 202 -35t125 -108.5t63.5 -189.5t17.5 -277q0 -162 -17.5 -277t-63.5 -188.5t-125 -108.5t-202 -35t-201.5 35t-124.5 108.5t-63.5 188.5t-17.5 277zM203 1565h256l174 -285h-125zM356 563q0 -106 2 -181 t14.5 -121t39 -66.5t75.5 -20.5t77 19.5t40 61.5t15.5 108.5t3.5 160.5v113q0 90 -3.5 154.5t-16.5 106.5t-39.5 62.5t-74.5 20.5q-47 0 -73.5 -18.5t-40 -57.5t-16.5 -97t-3 -138v-80v-27z" />
<glyph unicode="&#xf3;" horiz-adv-x="978" d="M82 578q0 162 17.5 277.5t63.5 189t125 108.5t201 35q123 0 202 -35t125 -108.5t63.5 -189.5t17.5 -277q0 -162 -17.5 -277t-63.5 -188.5t-125 -108.5t-202 -35t-201.5 35t-124.5 108.5t-63.5 188.5t-17.5 277zM351 1280l174 285h256l-305 -285h-125zM356 563 q0 -106 2 -181t14.5 -121t39 -66.5t75.5 -20.5t77 19.5t40 61.5t15.5 108.5t3.5 160.5v113q0 90 -3.5 154.5t-16.5 106.5t-39.5 62.5t-74.5 20.5q-47 0 -73.5 -18.5t-40 -57.5t-16.5 -97t-3 -138v-80v-27z" />
<glyph unicode="&#xf4;" horiz-adv-x="978" d="M82 578q0 162 17.5 277.5t63.5 189t125 108.5t201 35q123 0 202 -35t125 -108.5t63.5 -189.5t17.5 -277q0 -162 -17.5 -277t-63.5 -188.5t-125 -108.5t-202 -35t-201.5 35t-124.5 108.5t-63.5 188.5t-17.5 277zM216 1280l174 285h204l174 -285h-124l-152 150l-152 -150 h-124zM356 563q0 -106 2 -181t14.5 -121t39 -66.5t75.5 -20.5t77 19.5t40 61.5t15.5 108.5t3.5 160.5v113q0 90 -3.5 154.5t-16.5 106.5t-39.5 62.5t-74.5 20.5q-47 0 -73.5 -18.5t-40 -57.5t-16.5 -97t-3 -138v-80v-27z" />
<glyph unicode="&#xf5;" horiz-adv-x="978" d="M82 578q0 162 17.5 277.5t63.5 189t125 108.5t201 35q123 0 202 -35t125 -108.5t63.5 -189.5t17.5 -277q0 -162 -17.5 -277t-63.5 -188.5t-125 -108.5t-202 -35t-201.5 35t-124.5 108.5t-63.5 188.5t-17.5 277zM211 1292q41 231 179 232q31 0 61 -8l111 -33q20 -6 47 -6 q61 0 76 75h88q-16 -117 -66.5 -177t-120.5 -60q-27 0 -51 8l-121 35q-16 6 -33 6q-66 0 -82 -72h-88zM356 563q0 -106 2 -181t14.5 -121t39 -66.5t75.5 -20.5t77 19.5t40 61.5t15.5 108.5t3.5 160.5v113q0 90 -3.5 154.5t-16.5 106.5t-39.5 62.5t-74.5 20.5 q-47 0 -73.5 -18.5t-40 -57.5t-16.5 -97t-3 -138v-80v-27z" />
<glyph unicode="&#xf6;" horiz-adv-x="978" d="M82 578q0 162 17.5 277.5t63.5 189t125 108.5t201 35q123 0 202 -35t125 -108.5t63.5 -189.5t17.5 -277q0 -162 -17.5 -277t-63.5 -188.5t-125 -108.5t-202 -35t-201.5 35t-124.5 108.5t-63.5 188.5t-17.5 277zM211 1303v237h220v-237h-220zM356 563q0 -106 2 -181 t14.5 -121t39 -66.5t75.5 -20.5t77 19.5t40 61.5t15.5 108.5t3.5 160.5v113q0 90 -3.5 154.5t-16.5 106.5t-39.5 62.5t-74.5 20.5q-47 0 -73.5 -18.5t-40 -57.5t-16.5 -97t-3 -138v-80v-27zM553 1303v237h220v-237h-220z" />
<glyph unicode="&#xf7;" horiz-adv-x="1705" d="M254 512v199h1198v-199h-1198zM702 217q0 66 45.5 109t106.5 43t106.5 -44t45.5 -108q0 -59 -44 -104t-108 -45q-63 0 -107.5 43t-44.5 106zM702 1004q0 66 45.5 108.5t106.5 42.5t106.5 -44t45.5 -107q0 -61 -43 -106.5t-109 -45.5q-63 0 -107.5 44t-44.5 108z" />
<glyph unicode="&#xf8;" horiz-adv-x="978" d="M-4 -49l139 213q-33 82 -43 174t-10 201q0 137 8 246.5t39 195.5q35 100 126 153.5t234 53.5q84 0 150 -17.5t121 -64.5l106 166l99 -74l-125 -192q35 -90 46 -189.5t11 -214.5q0 -166 -16.5 -285.5t-61.5 -196.5t-125 -114t-205 -37q-86 0 -153.5 18.5t-124.5 67.5 l-117 -176zM350 688q0 -47 1 -100t1 -117l266 401q-20 113 -129 113q-90 0 -114.5 -70.5t-24.5 -226.5zM362 303q2 -133 125 -133q47 0 75 15.5t42 47t18.5 80.5t4.5 117v277z" />
<glyph unicode="&#xf9;" horiz-adv-x="991" d="M113 248v909h258v-756q0 -100 21.5 -151t92.5 -51q72 0 97.5 52t25.5 167v739h269v-1157h-263v115q-84 -145 -243 -146q-125 0 -191.5 71t-66.5 208zM209 1565h256l174 -285h-125z" />
<glyph unicode="&#xfa;" horiz-adv-x="991" d="M113 248v909h258v-756q0 -100 21.5 -151t92.5 -51q72 0 97.5 52t25.5 167v739h269v-1157h-263v115q-84 -145 -243 -146q-125 0 -191.5 71t-66.5 208zM357 1280l174 285h256l-305 -285h-125z" />
<glyph unicode="&#xfb;" horiz-adv-x="991" d="M113 248v909h258v-756q0 -100 21.5 -151t92.5 -51q72 0 97.5 52t25.5 167v739h269v-1157h-263v115q-84 -145 -243 -146q-125 0 -191.5 71t-66.5 208zM222 1280l174 285h204l174 -285h-124l-152 150l-152 -150h-124z" />
<glyph unicode="&#xfc;" horiz-adv-x="991" d="M113 248v909h258v-756q0 -100 21.5 -151t92.5 -51q72 0 97.5 52t25.5 167v739h269v-1157h-263v115q-84 -145 -243 -146q-125 0 -191.5 71t-66.5 208zM217 1303v237h220v-237h-220zM559 1303v237h220v-237h-220z" />
<glyph unicode="&#xfd;" horiz-adv-x="909" d="M20 1157h283l160 -835l155 835h271l-301 -1266q-18 -78 -41 -130t-58.5 -85.5t-88 -48t-130.5 -14.5q-20 0 -42.5 2t-51.5 6v201q12 -2 22.5 -2h20.5q59 0 84 18.5t25 59.5q0 10 -2 26.5t-9 38.5zM316 1280l174 285h256l-305 -285h-125z" />
<glyph unicode="&#xfe;" horiz-adv-x="995" d="M117 -389v1929h268v-491q23 66 80 102.5t141 36.5q88 0 147.5 -35t94.5 -108.5t49 -188.5t14 -272q0 -162 -12 -278t-46 -190.5t-93.5 -110.5t-153.5 -36q-154 0 -221 129v-487h-268zM377 653q0 -119 3 -206t16.5 -143t41 -82.5t78.5 -26.5q45 0 69.5 23.5t37 70.5 t14.5 120.5t2 172.5q0 100 -3 172.5t-15.5 120t-37 70t-67.5 22.5q-45 0 -72.5 -17.5t-42 -56.5t-19.5 -98.5t-5 -141.5z" />
<glyph unicode="&#xff;" horiz-adv-x="909" d="M20 1157h283l160 -835l155 835h271l-301 -1266q-18 -78 -41 -130t-58.5 -85.5t-88 -48t-130.5 -14.5q-20 0 -42.5 2t-51.5 6v201q12 -2 22.5 -2h20.5q59 0 84 18.5t25 59.5q0 10 -2 26.5t-9 38.5zM176 1303v237h220v-237h-220zM518 1303v237h220v-237h-220z" />
<glyph unicode="&#x152;" horiz-adv-x="1667" d="M104 762q0 217 15.5 360.5t54.5 220.5q119 233 387 234q186 0 258 -147v110h760v-256h-502v-358h469v-240h-469v-426h516v-260h-774v113q-35 -78 -102.5 -113t-175.5 -35q-127 0 -210 48t-134.5 146.5t-72 249t-20.5 353.5zM391 754q0 -143 9.5 -249t34 -175.5t68.5 -103 t113 -33.5q82 0 133.5 59t51.5 160v739q0 92 -53.5 144.5t-139.5 52.5q-70 0 -111.5 -36t-65 -110t-32 -185.5t-8.5 -262.5z" />
<glyph unicode="&#x153;" horiz-adv-x="1425" d="M86 561q0 373 53 467q47 86 122 123t190 37q92 0 155.5 -30t116.5 -99q96 129 272 129q90 0 160 -32t113 -91q57 -76 67.5 -172t10.5 -221v-137h-484v-72q0 -80 3 -135.5t14.5 -91t35 -51t66.5 -15.5q66 0 90.5 45t24.5 150v30h245v-43q0 -199 -81.5 -291t-260.5 -92 q-98 0 -162.5 25.5t-107.5 91.5q-45 -66 -116.5 -91.5t-178.5 -25.5q-109 0 -176.5 33t-105 103.5t-52 183t-14.5 272.5zM346 571q0 -106 2 -182t14.5 -125t38 -71.5t72.5 -22.5q41 0 66.5 16.5t39 51t18.5 89t5 130.5v164q0 92 -3 159.5t-16.5 111.5t-39 65.5t-70.5 21.5 q-47 0 -72.5 -18.5t-38 -58.5t-14.5 -101.5t-2 -147.5v-82zM862 784q0 -14 1 -29.5t1 -31.5h232v90q0 86 -29 126t-94 40q-61 0 -86 -46t-25 -149z" />
<glyph unicode="&#x178;" horiz-adv-x="1126" d="M18 1540h318l233 -579l230 579h309l-397 -887v-653h-289v653zM282 1692v237h220v-237h-220zM624 1692v237h220v-237h-220z" />
<glyph unicode="&#x2c6;" d="M236 1280l174 285h204l174 -285h-124l-152 150l-152 -150h-124z" />
<glyph unicode="&#x2dc;" d="M231 1292q41 231 179 232q31 0 61 -8l111 -33q20 -6 47 -6q61 0 76 75h88q-16 -117 -66.5 -177t-120.5 -60q-27 0 -51 8l-121 35q-16 6 -33 6q-66 0 -82 -72h-88z" />
<glyph unicode="&#x2000;" horiz-adv-x="986" />
<glyph unicode="&#x2001;" horiz-adv-x="1972" />
<glyph unicode="&#x2002;" horiz-adv-x="986" />
<glyph unicode="&#x2003;" horiz-adv-x="1972" />
<glyph unicode="&#x2004;" horiz-adv-x="657" />
<glyph unicode="&#x2005;" horiz-adv-x="493" />
<glyph unicode="&#x2006;" horiz-adv-x="328" />
<glyph unicode="&#x2007;" horiz-adv-x="328" />
<glyph unicode="&#x2008;" horiz-adv-x="246" />
<glyph unicode="&#x2009;" horiz-adv-x="394" />
<glyph unicode="&#x200a;" horiz-adv-x="109" />
<glyph unicode="&#x2010;" horiz-adv-x="671" d="M92 459v239h488v-239h-488z" />
<glyph unicode="&#x2011;" horiz-adv-x="671" d="M92 459v239h488v-239h-488z" />
<glyph unicode="&#x2012;" horiz-adv-x="671" d="M92 459v239h488v-239h-488z" />
<glyph unicode="&#x2013;" d="M0 498v161h1024v-161h-1024z" />
<glyph unicode="&#x2014;" horiz-adv-x="2048" d="M0 498v161h2048v-161h-2048z" />
<glyph unicode="&#x2018;" horiz-adv-x="512" d="M121 1038v277q0 104 65.5 175t182.5 87v-98q-59 -8 -94 -51.5t-35 -110.5v-17h127v-262h-246z" />
<glyph unicode="&#x2019;" horiz-adv-x="512" d="M121 1004v98q59 8 93 50t34 112v16h-127v260h248v-274q0 -104 -65.5 -175t-182.5 -87z" />
<glyph unicode="&#x201a;" horiz-adv-x="512" d="M121 0v262h248v-276q0 -104 -65.5 -174t-182.5 -86v98q59 8 93 49t34 111v16h-127z" />
<glyph unicode="&#x201c;" horiz-adv-x="907" d="M121 1038v277q0 104 65.5 175t182.5 87v-98q-59 -8 -94 -51.5t-35 -110.5v-17h127v-262h-246zM516 1038v277q0 104 65.5 175t182.5 87v-98q-59 -8 -94 -51.5t-35 -110.5v-17h127v-262h-246z" />
<glyph unicode="&#x201d;" horiz-adv-x="907" d="M121 1004v98q59 8 93 50t34 112v16h-127v260h248v-274q0 -104 -65.5 -175t-182.5 -87zM516 1004v98q59 8 93 50t34 112v16h-127v260h248v-274q0 -104 -65.5 -175t-182.5 -87z" />
<glyph unicode="&#x201e;" horiz-adv-x="907" d="M121 0v262h248v-276q0 -104 -65.5 -174t-182.5 -86v98q59 8 93 49t34 111v16h-127zM516 0v262h248v-276q0 -104 -65.5 -174t-182.5 -86v98q59 8 93 49t34 111v16h-127z" />
<glyph unicode="&#x2022;" horiz-adv-x="1208" d="M307 762q0 61 23.5 114.5t63.5 93.5t94.5 63.5t115.5 23.5t114.5 -23.5t93.5 -63.5t63.5 -93.5t23.5 -114.5t-23.5 -114.5t-63.5 -94.5t-94 -64.5t-116 -23.5q-61 0 -115.5 23.5t-94.5 63.5t-62.5 94.5t-22.5 115.5z" />
<glyph unicode="&#x2026;" horiz-adv-x="2048" d="M213 0v276h258v-276h-258zM895 0v276h258v-276h-258zM1579 0v276h258v-276h-258z" />
<glyph unicode="&#x202f;" horiz-adv-x="394" />
<glyph unicode="&#x2039;" horiz-adv-x="587" d="M137 475v207l314 283v-222l-193 -163l193 -166v-221z" />
<glyph unicode="&#x203a;" horiz-adv-x="587" d="M137 193v221l193 164l-193 165v222l314 -283v-207z" />
<glyph unicode="&#x205f;" horiz-adv-x="493" />
<glyph unicode="&#x2122;" horiz-adv-x="1705" d="M207 1350v112h485v-112h-168v-435h-149v435h-168zM803 915v547h196l127 -332l123 332h197v-547h-135v410l-154 -410h-61l-158 410v-410h-135z" />
<glyph unicode="&#xe000;" horiz-adv-x="1157" d="M0 0v1157h1157v-1157h-1157z" />
</font>
</defs>
</svg>
